<svg xmlns="http://www.w3.org/2000/svg" viewBox="0 0 800 600" width="800" height="600">
  <defs>
    <linearGradient id="sky" x1="0" y1="0" x2="0" y2="1">
      <stop offset="0" stop-color="#0b1a4a"/><stop offset="55%" stop-color="#1d2f6b"/><stop offset="100%" stop-color="#5c74b8"/>
    </linearGradient>
    <linearGradient id="a1" x1="0" y1="0" x2="1" y2="1">
      <stop offset="0" stop-color="#5cf3c8" stop-opacity=".9"/><stop offset="1" stop-color="#5cf3c8" stop-opacity="0"/>
    </linearGradient>
    <linearGradient id="a2" x1="0" y1="0" x2="1" y2="1">
      <stop offset="0" stop-color="#8f7cf0" stop-opacity=".85"/><stop offset="1" stop-color="#8f7cf0" stop-opacity="0"/>
    </linearGradient>
    <linearGradient id="snow" x1="0" y1="0" x2="0" y2="1">
      <stop offset="0" stop-color="#eef4ff"/><stop offset="1" stop-color="#a9bde2"/>
    </linearGradient>
    <linearGradient id="ice" x1="0" y1="0" x2="0" y2="1">
      <stop offset="0" stop-color="#dbeaff"/><stop offset="1" stop-color="#8fa9d8"/>
    </linearGradient>
  </defs>
  <rect width="800" height="600" fill="url(#sky)"/>
  <g opacity=".95">
    <path d="M60 40c120 40 180 180 320 210s260-40 400-10-40 200-200 220-320-140-460-220z" fill="url(#a1)"/>
    <path d="M20 120c140 20 220 160 380 180s280-60 400-30-60 190-240 190S140 300 20 260z" fill="url(#a2)" opacity=".8"/>
    <path d="M120 -20c100 90 140 220 300 240s260-90 380-60-30 170-190 190S160 130 60 60z" fill="url(#a1)" opacity=".55"/>
  </g>
  <g fill="#ffffff">
    <circle cx="90" cy="60" r="1.8"/><circle cx="220" cy="38" r="1.4"/><circle cx="360" cy="70" r="1.9"/>
    <circle cx="500" cy="44" r="1.5"/><circle cx="640" cy="86" r="1.7"/><circle cx="740" cy="140" r="1.4"/>
    <circle cx="160" cy="140" r="1.3"/><circle cx="430" cy="130" r="1.6"/><circle cx="600" cy="180" r="1.3"/>
  </g>
  <path d="M0 430l140-140 90 90 110-130 130 150 90-70 140 120v160H0z" fill="url(#snow)"/>
  <path d="M300 330l40 46-80 0z" fill="#ffffff" opacity=".9"/>
  <path d="M0 500q120-40 240-6t260-10 300 22v94H0z" fill="url(#ice)"/>
  <path d="M120 560l70-60 80 60z" fill="#ffffff" opacity=".65"/>
  <path d="M560 566l60-52 70 52z" fill="#ffffff" opacity=".55"/>
  <ellipse cx="400" cy="590" rx="420" ry="40" fill="#7f9cc9" opacity=".45"/>
</svg>
