<svg xmlns="http://www.w3.org/2000/svg" viewBox="0 0 512 512" width="512" height="512">
  <defs>
    <linearGradient id="bg" x1="0" y1="0" x2="1" y2="1">
      <stop offset="0" stop-color="#7f9df6"/>
      <stop offset="1" stop-color="#9d86f2"/>
    </linearGradient>
    <linearGradient id="glass" x1="0" y1="0" x2="0" y2="1">
      <stop offset="0" stop-color="#ffffff" stop-opacity=".95"/>
      <stop offset="1" stop-color="#dce7ff" stop-opacity=".65"/>
    </linearGradient>
    <linearGradient id="water" x1="0" y1="0" x2="0" y2="1">
      <stop offset="0" stop-color="#bfe0ff"/>
      <stop offset="1" stop-color="#6f9df0"/>
    </linearGradient>
  </defs>
  <rect width="512" height="512" rx="120" fill="url(#bg)"/>
  <circle cx="392" cy="118" r="46" fill="#fff" opacity=".18"/>
  <path d="M166 300l44-52 34 40 26-30 52 60z" fill="#ffffff" opacity=".55"/>
  <g>
    <rect x="146" y="150" width="220" height="250" rx="66" fill="url(#glass)"/>
    <path d="M168 320q20-18 40 0t40 0 40 0 40 0v54a66 66 0 0 1-40 26h-80a66 66 0 0 1-40-26z" fill="url(#water)" opacity=".85"/>
    <ellipse cx="256" cy="140" rx="86" ry="22" fill="#fff" opacity=".85"/>
    <rect x="206" y="96" width="100" height="52" rx="16" fill="#e0b681"/>
    <rect x="206" y="96" width="100" height="20" rx="10" fill="#f0d0a6"/>
    <rect x="182" y="196" width="20" height="120" rx="10" fill="#fff" opacity=".75"/>
    <circle cx="304" cy="252" r="14" fill="#fff" opacity=".6"/>
    <path d="M256 236c8-10 26-6 26 8 0 12-26 28-26 28s-26-16-26-28c0-14 18-18 26-8z" fill="#f0a6c9"/>
  </g>
</svg>
